<svg xmlns="http://www.w3.org/2000/svg" width="160" height="160" viewBox="0 -0.31 160 160" overflow="visible" enable-background="new 0 -0.31 160 160"><path fill="#AEBEE2" d="M21.103 113.7l-10.112 5.834c14.654 25.385 39.701 39.846 69.012 39.846v-11.518c-25.207-.008-47.19-13.762-58.9-34.162z"/><path fill="#879DD1" d="M12.117 79.954c0-12.451 3.366-24.107 9.214-34.139l-10.34-5.969c-14.654 25.381-14.654 54.305 0 79.688l10.111-5.838c-5.707-9.942-8.985-21.455-8.985-33.742z"/><path fill="#627CBD" d="M80.002 12.048v-12.048c-29.31 0-54.357 14.458-69.011 39.846l10.34 5.969c11.765-20.184 33.627-33.759 58.671-33.767z"/><path fill="#4060AC" d="M80.024 12.048c25.048 0 46.911 13.571 58.683 33.751l10.312-5.954c-14.656-25.387-39.702-39.845-69.017-39.845v12.048h.022z"/><path fill="#E4E9F5" d="M149.019 39.846l-10.312 5.954c5.854 10.035 9.224 21.699 9.224 34.154 0 12.295-3.282 23.812-8.996 33.762l10.085 5.818c14.654-25.383 14.654-54.307-.001-79.688z"/><path fill="#D7DFF1" d="M138.934 113.715c-11.715 20.398-33.698 34.146-58.91 34.146h-.021v11.518c29.314 0 54.36-14.461 69.017-39.846l-10.086-5.818z"/></svg>