<svg width="20" height="9" xmlns="http://www.w3.org/2000/svg" xmlns:xlink="http://www.w3.org/1999/xlink"><defs><path id="a" d="M0.01314225 0.0135L0.649935 0.0135 0.649935 0.740203724 0.01314225 0.740203724z"/></defs><g fill="none" fill-rule="evenodd"><path fill="#FFF" d="M0 0H4820V3436H0z" transform="translate(-152 -2953)"/><path d="M18.0132548,4.5150435 C17.1501323,3.8456235 13.9291223,0.012006 9.06277725,0.012006 C4.39526475,0.012006 0.19309725,4.2863085 0.01325475,4.5120285 L0.01325475,4.5150435" transform="translate(1.472 1.01)"/><path d="M18.0132548,4.5150435 C17.1501323,3.8456235 13.9291223,0.012006 9.06277725,0.012006 C4.39526475,0.012006 0.19309725,4.2863085 0.01325475,4.5120285 L0.01325475,4.5150435" stroke="#0077CB" stroke-width="1.585" transform="translate(1.472 1.01)"/><path d="M12.8607548,3.39673275 C12.8607548,5.26070025 11.3497223,6.77173275 9.48575475,6.77173275 C7.62178725,6.77173275 6.11075475,5.26070025 6.11075475,3.39673275 C6.11075475,1.53276525 7.62178725,0.02173275 9.48575475,0.02173275 C11.3497223,0.02173275 12.8607548,1.37848275 12.8607548,3.39673275" fill="#0077CB" transform="translate(1 1)"/><path d="M12.8607548,3.39673275 C12.8607548,5.26070025 11.3497223,6.77173275 9.48575475,6.77173275 C7.62178725,6.77173275 6.11075475,5.26070025 6.11075475,3.39673275 C6.11075475,1.53276525 7.62178725,0.02173275 9.48575475,0.02173275 C11.3497223,0.02173275 12.8607548,1.37848275 12.8607548,3.39673275 Z" stroke="#0077CB" stroke-width=".5" transform="translate(1 1)"/><g transform="translate(19.293 5.263)"><mask id="b" fill="#fff"><use xlink:href="#a"/></mask><path d="M0.31045725,0.7247925 L0.01314225,0.4934925 L0.34650225,0.0135 L0.48712725,0.108 C0.66120975,0.2249775 0.70346475,0.4646025 0.57600225,0.640125 L0.56970225,0.6486075 C0.55500975,0.6684525 0.53617725,0.68499 0.51383475,0.694665 C0.44802225,0.723195 0.38940975,0.762255 0.31045725,0.7247925" fill="#231F20" mask="url(#b)"/></g><path d="M0.06987825,4.5566145 L0.24351075,4.356567 L0.73992825,4.6756845 L0.47226825,5.0068845 C0.39259575,5.1054345 0.24555825,5.1101145 0.15996825,5.0167845 L0.07035075,4.9190445 C-0.02327175,4.8169845 -0.02345175,4.6589445 0.06987825,4.5566145" fill="#231F20" transform="translate(1 1)"/><path d="M10.205469,2.274012 C10.205469,3.2059845 9.500319,3.961512 8.630469,3.961512 C7.760619,3.961512 7.055469,3.2059845 7.055469,2.274012 C7.055469,1.3420395 7.760619,0.586512 8.630469,0.586512 C9.500319,0.586512 10.205469,1.3420395 10.205469,2.274012" fill="#FEFEFE" transform="translate(1 1)"/></g></svg>